<?xml version="1.0" encoding="utf-8"?>
<!-- Generator: Adobe Illustrator 16.0.0, SVG Export Plug-In . SVG Version: 6.00 Build 0)  -->
<!DOCTYPE svg PUBLIC "-//W3C//DTD SVG 1.1//EN" "http://www.w3.org/Graphics/SVG/1.1/DTD/svg11.dtd">
<svg version="1.1" id="Capa_1" xmlns="http://www.w3.org/2000/svg" xmlns:xlink="http://www.w3.org/1999/xlink" x="0px" y="0px"
	 width="595.279px" height="841.891px" viewBox="0 0 595.279 841.891" enable-background="new 0 0 595.279 841.891"
	 xml:space="preserve">
<path fill="#7CC99B" d="M128.978,123.305c-15.349,0-30.092,6.568-40.46,18.027c-10.188,11.28-15.209,26.381-13.859,41.501H74.41
	v485.729c0,27.582,22.441,50.023,50.023,50.023H520.87V232.439v-19.842v-89.292H128.978z M94.253,668.562V222.499
	c8.294,6.241,18.602,9.941,29.764,9.941v466.264C107.568,698.475,94.253,685.061,94.253,668.562z M501.028,698.742H143.86V232.439
	h29.764v250.027c0,6.767,4.375,12.521,10.903,14.327c1.359,0.367,2.709,0.556,4.048,0.556c0.149,0,0.288-0.05,0.437-0.06
	c0.447-0.01,0.873-0.119,1.32-0.169c1.021-0.119,2.004-0.327,2.966-0.654c0.477-0.159,0.923-0.348,1.369-0.556
	c0.933-0.427,1.786-0.963,2.609-1.578c0.357-0.268,0.725-0.496,1.052-0.794c1.102-0.981,2.104-2.093,2.897-3.433l41.838-69.727
	l41.839,69.736c3.244,5.407,9.315,7.947,15.378,6.816c0.446-0.079,0.883-0.02,1.329-0.139c6.519-1.815,10.903-7.57,10.903-14.327
	V232.439h188.506v466.303H501.028z M294.069,217.389l-0.03,0.069l-1.358,2.718v0.417l-0.992,2.282l0.992,1.508v1.111V464.5
	l-49.607-82.675L193.466,464.5V224.86l16.053-32.105h96.872L294.069,217.389z M318.654,212.597l19.843-39.686h-141.24
	l-19.843,39.686H131.08c-18.791,0-34.883-13.682-36.639-31.153c-1.003-9.901,2.123-19.416,8.8-26.797
	c6.598-7.312,15.983-11.499,25.736-11.499h372.05v9.921H451.42c-5.486,0-9.921,4.435-9.921,9.921s4.435,9.921,9.921,9.921h49.607
	v9.921h-39.686c-5.486,0-9.922,4.435-9.922,9.921c0,5.486,4.436,9.921,9.922,9.921h39.686v9.921H318.654z"/>
</svg>
