<?xml version="1.0" encoding="utf-8"?>
<!-- Generator: Adobe Illustrator 16.0.0, SVG Export Plug-In . SVG Version: 6.00 Build 0)  -->
<!DOCTYPE svg PUBLIC "-//W3C//DTD SVG 1.1//EN" "http://www.w3.org/Graphics/SVG/1.1/DTD/svg11.dtd">
<svg version="1.1" id="Capa_1" xmlns="http://www.w3.org/2000/svg" xmlns:xlink="http://www.w3.org/1999/xlink" x="0px" y="0px"
	 width="595.279px" height="841.891px" viewBox="0 0 595.279 841.891" enable-background="new 0 0 595.279 841.891"
	 xml:space="preserve">
<g>
	<g>
		<path fill="#FBB03B" d="M433.527,217.9c-2.634,0-5.286-1.154-7.071-3.409l-55.271-69.504l-69.503,55.271
			c-3.86,3.085-9.561,2.49-12.682-1.443c-3.103-3.896-2.453-9.561,1.443-12.663l76.557-60.899c3.896-3.066,9.578-2.489,12.681,1.443
			l60.899,76.557c3.103,3.896,2.453,9.561-1.443,12.663C437.494,217.251,435.51,217.9,433.527,217.9z"/>
		<path fill="#FBB03B" d="M81.139,432.833c-4.979,0-9.02-4.041-9.02-9.02s4.04-9.02,9.02-9.02
			c155.765,0,282.469-126.705,282.469-282.47c0-4.979,4.041-9.02,9.02-9.02s9.02,4.041,9.02,9.02
			C381.647,298.029,246.843,432.833,81.139,432.833z"/>
	</g>
	<path fill="#FBB03B" d="M81.139,718.585c-4.979,0-9.02-4.04-9.02-9.02V570.812c0-4.979,4.04-9.02,9.02-9.02
		c4.979,0,9.019,4.041,9.019,9.02v138.754C90.157,714.545,86.117,718.585,81.139,718.585z"/>
	<path fill="#FBB03B" d="M225.485,718.585c-4.979,0-9.02-4.04-9.02-9.02V483.27c0-4.979,4.041-9.02,9.02-9.02
		c4.979,0,9.02,4.04,9.02,9.02v226.296C234.504,714.545,230.464,718.585,225.485,718.585z"/>
	<path fill="#FBB03B" d="M369.813,718.585c-4.979,0-9.02-4.04-9.02-9.02V420.368c0-4.979,4.041-9.02,9.02-9.02
		c4.979,0,9.02,4.04,9.02,9.02v289.197C378.832,714.545,374.792,718.585,369.813,718.585z"/>
	<path fill="#FBB03B" d="M514.142,718.585c-4.979,0-9.02-4.04-9.02-9.02V327.811c0-4.979,4.04-9.019,9.02-9.019
		c4.979,0,9.019,4.041,9.019,9.019v381.755C523.16,714.545,519.12,718.585,514.142,718.585z"/>
</g>
</svg>
