<?xml version="1.0" encoding="utf-8"?>
<!-- Generator: Adobe Illustrator 16.0.0, SVG Export Plug-In . SVG Version: 6.00 Build 0)  -->
<!DOCTYPE svg PUBLIC "-//W3C//DTD SVG 1.1//EN" "http://www.w3.org/Graphics/SVG/1.1/DTD/svg11.dtd">
<svg version="1.1" id="Capa_1" xmlns="http://www.w3.org/2000/svg" xmlns:xlink="http://www.w3.org/1999/xlink" x="0px" y="0px"
	 width="595.279px" height="841.891px" viewBox="0 0 595.279 841.891" enable-background="new 0 0 595.279 841.891"
	 xml:space="preserve">
<path fill="#7CC99B" d="M565.417,257.243h-19.744v-29.764H446.46v29.764h-39.686v-57.484c0-17.541-14.267-31.808-31.808-31.808
	H220.313c-17.54,0-31.808,14.267-31.808,31.808v57.484H148.82v-29.764H49.607v29.764H29.864C13.404,257.243,0,270.646,0,287.106
	v356.97c0,16.459,13.403,29.863,29.863,29.863h535.554c16.459,0,29.862-13.404,29.862-29.863v-356.97
	C595.28,270.646,581.876,257.243,565.417,257.243z M466.303,247.322h59.527v9.921h-59.527V247.322z M208.348,199.759
	c0-6.598,5.367-11.965,11.965-11.965h154.654c6.598,0,11.965,5.368,11.965,11.965v57.484H208.348V199.759z M188.505,277.086h218.27
	h39.686h49.606v377.011H99.213V277.086h49.606H188.505z M69.449,247.322h59.528v9.921H69.449V247.322z M19.843,644.076v-356.97
	c0-5.526,4.494-10.021,10.021-10.021h19.743H79.37v377.011H29.864C24.337,654.097,19.843,649.603,19.843,644.076z M575.438,644.076
	c0,5.526-4.495,10.021-10.021,10.021h-49.508V277.086h29.764h19.744c5.525,0,10.021,4.494,10.021,10.021V644.076z"/>
</svg>
