<?xml version="1.0" encoding="utf-8"?>
<!-- Generator: Adobe Illustrator 16.0.0, SVG Export Plug-In . SVG Version: 6.00 Build 0)  -->
<!DOCTYPE svg PUBLIC "-//W3C//DTD SVG 1.1//EN" "http://www.w3.org/Graphics/SVG/1.1/DTD/svg11.dtd">
<svg version="1.1" id="Capa_1" xmlns="http://www.w3.org/2000/svg" xmlns:xlink="http://www.w3.org/1999/xlink" x="0px" y="0px"
	 width="595.279px" height="841.891px" viewBox="0 0 595.279 841.891" enable-background="new 0 0 595.279 841.891"
	 xml:space="preserve">
<path fill="#7CC99B" d="M505.75,383.185c-5.249-89.292-78.855-160.666-167.582-160.666c-53.872,0-106.039,26.42-138.362,69.528
	c-0.744-0.387-1.528-0.655-2.282-1.012c-1.964-0.953-3.958-1.855-5.992-2.669c-1.131-0.446-2.262-0.853-3.403-1.25
	c-2.014-0.705-4.058-1.33-6.141-1.895c-1.142-0.308-2.272-0.625-3.423-0.883c-2.232-0.506-4.515-0.893-6.816-1.24
	c-1.002-0.149-1.984-0.347-2.996-0.457c-3.294-0.367-6.628-0.595-10.011-0.595c-49.239,0-89.292,40.052-89.292,89.292
	c0,1.26,0.079,2.5,0.158,3.74v0.04C28.345,397.62,0,444.746,0,491.922c0,70.273,57.167,127.45,127.439,127.45h243.151
	c1.032,0,2.054-0.06,3.086-0.139l0.615-0.08l1.329,0.08c1.013,0.079,2.024,0.139,3.066,0.139h97.259
	c65.798,0,119.333-53.536,119.333-119.334C595.28,445.58,557.311,396.737,505.75,383.185z M475.947,599.529h-97.259
	c-0.586,0-1.151-0.05-1.727-0.09l-2.688-0.108l-1.965,0.108c-0.565,0.04-1.141,0.09-1.717,0.09H127.44
	c-59.33,0-107.597-48.268-107.597-107.607c0-41.213,26.837-83.993,63.823-101.723l5.626-2.688v-6.25c0-1.26,0.079-2.54,0.148-3.83
	l0.09-1.587l-0.119-2.083c-0.06-0.804-0.119-1.607-0.119-2.421c0-38.287,31.163-69.449,69.449-69.449
	c3.065,0,6.092,0.268,9.098,0.665c0.774,0.099,1.548,0.228,2.312,0.357c2.649,0.437,5.259,1.012,7.828,1.756
	c0.348,0.099,0.704,0.168,1.052,0.268c2.827,0.863,5.586,1.954,8.284,3.185c0.704,0.317,1.389,0.665,2.084,1.002
	c2.381,1.181,4.712,2.471,6.965,3.929c19.118,12.382,31.827,33.862,31.827,58.288c0,5.486,4.435,9.921,9.922,9.921
	c5.486,0,9.921-4.435,9.921-9.921c0-27.323-12.362-51.779-31.748-68.169c28.444-37.205,75.283-60.808,121.883-60.808
	c76.841,0,140.655,60.868,147.313,137.788c-10.14-0.714-25.319-1.082-40.509,1.23c-5.417,0.823-9.138,5.883-8.314,11.3
	c0.744,4.911,4.971,8.433,9.793,8.433c0.496,0,1.002-0.04,1.498-0.119c22.095-3.344,45.122-0.208,46.472-0.02
	c46.193,8.78,81.018,51.333,81.018,99.064C575.438,554.893,530.801,599.529,475.947,599.529z"/>
</svg>
