<?xml version="1.0" encoding="utf-8"?>
<!-- Generator: Adobe Illustrator 16.0.0, SVG Export Plug-In . SVG Version: 6.00 Build 0)  -->
<!DOCTYPE svg PUBLIC "-//W3C//DTD SVG 1.1//EN" "http://www.w3.org/Graphics/SVG/1.1/DTD/svg11.dtd">
<svg version="1.1" id="Capa_1" xmlns="http://www.w3.org/2000/svg" xmlns:xlink="http://www.w3.org/1999/xlink" x="0px" y="0px"
	 width="595.279px" height="841.891px" viewBox="0 0 595.279 841.891" enable-background="new 0 0 595.279 841.891"
	 xml:space="preserve">
<g>
	<path fill="#7CC99B" d="M85.04,272.125c37.407,0,68.372-27.787,73.56-63.78h415.42c5.879,0,10.63-4.751,10.63-10.63
		s-4.751-10.63-10.63-10.63H158.6c-5.188-35.993-36.152-63.78-73.56-63.78c-41.032,0-74.41,33.389-74.41,74.41
		C10.63,238.736,44.008,272.125,85.04,272.125z M85.04,144.565c29.307,0,53.149,23.843,53.149,53.15
		c0,29.307-23.843,53.15-53.149,53.15c-29.308,0-53.15-23.843-53.15-53.15C31.89,168.408,55.733,144.565,85.04,144.565z"/>
	<path fill="#7CC99B" d="M510.24,569.766c-37.407,0-68.373,27.786-73.561,63.779H21.26c-5.868,0-10.63,4.752-10.63,10.63
		c0,5.879,4.762,10.63,10.63,10.63h415.42c5.188,35.994,36.153,63.78,73.561,63.78c41.021,0,74.409-33.389,74.409-74.41
		C584.65,603.154,551.261,569.766,510.24,569.766z M510.24,697.325c-29.308,0-53.15-23.843-53.15-53.15
		c0-29.307,23.843-53.149,53.15-53.149c29.307,0,53.149,23.843,53.149,53.149C563.39,673.482,539.547,697.325,510.24,697.325z"/>
	<path fill="#7CC99B" d="M574.02,410.315H375.962c-4.21-38.29-36.728-68.181-76.122-68.181s-71.911,29.902-76.121,68.181H21.26
		c-5.868,0-10.63,4.751-10.63,10.63c0,5.878,4.762,10.63,10.63,10.63h203.129c6.134,36.142,37.588,63.78,75.451,63.78
		c37.864,0,69.308-27.639,75.441-63.78H574.02c5.879,0,10.63-4.752,10.63-10.63C584.65,415.066,579.899,410.315,574.02,410.315z
		 M299.84,474.095c-30.519,0-55.35-24.831-55.35-55.35c0-30.519,24.831-55.351,55.35-55.351s55.351,24.832,55.351,55.351
		C355.191,449.264,330.359,474.095,299.84,474.095z"/>
</g>
</svg>
