<?xml version="1.0" encoding="utf-8"?>
<!-- Generator: Adobe Illustrator 16.0.0, SVG Export Plug-In . SVG Version: 6.00 Build 0)  -->
<!DOCTYPE svg PUBLIC "-//W3C//DTD SVG 1.1//EN" "http://www.w3.org/Graphics/SVG/1.1/DTD/svg11.dtd">
<svg version="1.1" id="Capa_1" xmlns="http://www.w3.org/2000/svg" xmlns:xlink="http://www.w3.org/1999/xlink" x="0px" y="0px"
	 width="595.279px" height="841.891px" viewBox="0 0 595.279 841.891" enable-background="new 0 0 595.279 841.891"
	 xml:space="preserve">
<path fill="#FBB03B" d="M525.83,530.08V411.023h-218.27v-99.213h69.45V153.069H218.27v158.742h69.449v99.213H69.449V530.08H0
	v158.741h158.741V530.08H89.292v-99.214h198.427v99.214H218.27v158.741h158.741V530.08h-69.45v-99.214h198.427v99.214h-69.449
	v158.741H595.28V530.08H525.83z M238.113,172.912h119.056v119.056H238.113V172.912z M138.899,668.979H19.843V549.923h119.056
	V668.979z M357.168,668.979H238.113V549.923h119.056V668.979z M575.438,668.979H456.381V549.923h119.057V668.979z"/>
</svg>
