<?xml version="1.0" encoding="utf-8"?>
<!-- Generator: Adobe Illustrator 16.0.0, SVG Export Plug-In . SVG Version: 6.00 Build 0)  -->
<!DOCTYPE svg PUBLIC "-//W3C//DTD SVG 1.1//EN" "http://www.w3.org/Graphics/SVG/1.1/DTD/svg11.dtd">
<svg version="1.1" id="Capa_1" xmlns="http://www.w3.org/2000/svg" xmlns:xlink="http://www.w3.org/1999/xlink" x="0px" y="0px"
	 width="595.279px" height="841.891px" viewBox="0 0 595.279 841.891" enable-background="new 0 0 595.279 841.891"
	 xml:space="preserve">
<g>
	<path fill="#FBB03B" d="M297.64,211.495c-103.336,0-187.402,84.067-187.402,187.403c0,78.4,48.404,147.851,121.261,175.277V674.49
		c0,6.097,4.927,11.023,11.023,11.023h11.023v22.048c0,6.096,4.928,11.023,11.023,11.023h66.143c6.096,0,11.023-4.928,11.023-11.023
		v-22.048h11.023c6.097,0,11.024-4.927,11.024-11.023V574.175c72.855-27.427,121.261-96.877,121.261-175.277
		C485.043,295.562,400.976,211.495,297.64,211.495z M330.711,663.467c-6.097,0-11.023,4.928-11.023,11.023v22.048h-44.095V674.49
		c0-6.096-4.928-11.023-11.024-11.023h-11.023v-55.119h88.189v55.119H330.711z M349.319,555.897
		c-4.53,1.488-7.584,5.721-7.584,10.473v19.931h-88.189V566.37c0-4.763-3.054-8.984-7.584-10.473
		c-67.983-22.356-113.677-85.456-113.677-157c0-91.177,74.179-165.355,165.355-165.355s165.355,74.179,165.355,165.355
		C462.995,470.441,417.302,533.541,349.319,555.897z"/>
	<path fill="#FBB03B" d="M297.64,189.447c6.097,0,11.023-4.928,11.023-11.024v-44.095c0-6.096-4.927-11.024-11.023-11.024
		c-6.096,0-11.023,4.928-11.023,11.024v44.095C286.616,184.52,291.544,189.447,297.64,189.447z"/>
	<path fill="#FBB03B" d="M562.209,387.874h-44.095c-6.097,0-11.024,4.928-11.024,11.023c0,6.097,4.928,11.023,11.024,11.023h44.095
		c6.096,0,11.023-4.927,11.023-11.023C573.233,392.802,568.305,387.874,562.209,387.874z"/>
	<path fill="#FBB03B" d="M77.166,387.874H33.072c-6.097,0-11.024,4.928-11.024,11.023c0,6.097,4.928,11.023,11.024,11.023h44.095
		c6.096,0,11.023-4.927,11.023-11.023C88.19,392.802,83.262,387.874,77.166,387.874z"/>
	<path fill="#FBB03B" d="M476.93,204.021l-31.176,31.175c-4.31,4.311-4.31,11.277,0,15.588c2.15,2.149,4.972,3.23,7.794,3.23
		s5.645-1.081,7.794-3.23l31.175-31.175c4.311-4.31,4.311-11.277,0-15.587C488.206,199.71,481.229,199.721,476.93,204.021z"/>
	<path fill="#FBB03B" d="M133.938,547.012l-31.175,31.176c-4.311,4.31-4.311,11.277,0,15.587c2.149,2.15,4.972,3.23,7.794,3.23
		s5.644-1.08,7.794-3.23l31.175-31.175c4.311-4.311,4.311-11.277,0-15.588C145.215,542.702,138.248,542.702,133.938,547.012z"/>
	<path fill="#FBB03B" d="M461.342,547.012c-4.311-4.31-11.277-4.31-15.588,0c-4.311,4.311-4.31,11.277,0,15.588l31.176,31.175
		c2.149,2.15,4.971,3.23,7.793,3.23s5.645-1.08,7.794-3.23c4.311-4.31,4.311-11.277,0-15.587L461.342,547.012z"/>
	<path fill="#FBB03B" d="M133.938,250.783c2.15,2.149,4.972,3.23,7.794,3.23s5.645-1.081,7.794-3.23
		c4.311-4.311,4.311-11.277,0-15.588l-31.175-31.175c-4.311-4.31-11.277-4.31-15.588,0c-4.311,4.311-4.311,11.277,0,15.587
		L133.938,250.783z"/>
	<path fill="#FBB03B" d="M297.64,266.613c-72.943,0-132.284,59.34-132.284,132.284c0,6.097,4.928,11.023,11.023,11.023
		c6.097,0,11.023-4.927,11.023-11.023c0-60.785,49.453-110.237,110.237-110.237c6.097,0,11.023-4.928,11.023-11.024
		S303.737,266.613,297.64,266.613z"/>
</g>
</svg>
