<?xml version="1.0" encoding="utf-8"?>
<!-- Generator: Adobe Illustrator 16.0.0, SVG Export Plug-In . SVG Version: 6.00 Build 0)  -->
<!DOCTYPE svg PUBLIC "-//W3C//DTD SVG 1.1//EN" "http://www.w3.org/Graphics/SVG/1.1/DTD/svg11.dtd">
<svg version="1.1" id="Capa_1" xmlns="http://www.w3.org/2000/svg" xmlns:xlink="http://www.w3.org/1999/xlink" x="0px" y="0px"
	 width="595.279px" height="841.891px" viewBox="0 0 595.279 841.891" enable-background="new 0 0 595.279 841.891"
	 xml:space="preserve">
<path fill="#7CC99B" d="M490.681,361.036l104.6-59.763L297.646,132.242L0,301.272l104.599,59.763L0,420.431l104.599,59.763
	L0,539.589l297.646,170.049L595.28,539.589l-104.599-59.396l104.599-59.763L490.681,361.036z M297.646,157.157l253.86,144.17
	l-253.86,145.047L43.775,301.327L297.646,157.157z M126.47,373.526l171.176,97.796l171.175-97.797l82.686,46.959l-253.86,145.048
	L43.775,420.484L126.47,373.526z M551.506,539.643L297.646,684.69L43.775,539.643l82.695-46.959l171.176,97.796l171.175-97.796
	L551.506,539.643z"/>
</svg>
