<?xml version="1.0" encoding="utf-8"?>
<!-- Generator: Adobe Illustrator 16.0.0, SVG Export Plug-In . SVG Version: 6.00 Build 0)  -->
<!DOCTYPE svg PUBLIC "-//W3C//DTD SVG 1.1//EN" "http://www.w3.org/Graphics/SVG/1.1/DTD/svg11.dtd">
<svg version="1.1" id="Capa_1" xmlns="http://www.w3.org/2000/svg" xmlns:xlink="http://www.w3.org/1999/xlink" x="0px" y="0px"
	 width="595.279px" height="841.891px" viewBox="0 0 595.279 841.891" enable-background="new 0 0 595.279 841.891"
	 xml:space="preserve">
<path fill="#FBB03B" d="M581.097,699.558L414.098,525.883c42.595-42.719,68.984-101.611,68.984-166.561
	c0-130.147-105.871-236.018-236.018-236.018S11.048,229.175,11.048,359.322c0,130.146,105.87,236.017,236.017,236.017
	c57.128,0,109.557-20.421,150.422-54.306L564.89,715.135c2.203,2.304,5.147,3.45,8.104,3.45c2.81,0,5.608-1.045,7.788-3.136
	C585.255,711.146,585.39,704.031,581.097,699.558z M247.065,572.861c-117.75,0-213.539-95.789-213.539-213.539
	s95.789-213.54,213.539-213.54s213.539,95.79,213.539,213.54S364.804,572.861,247.065,572.861z"/>
</svg>
