<?xml version="1.0" encoding="utf-8"?>
<!-- Generator: Adobe Illustrator 16.0.0, SVG Export Plug-In . SVG Version: 6.00 Build 0)  -->
<!DOCTYPE svg PUBLIC "-//W3C//DTD SVG 1.1//EN" "http://www.w3.org/Graphics/SVG/1.1/DTD/svg11.dtd">
<svg version="1.1" id="Layer_1" xmlns="http://www.w3.org/2000/svg" xmlns:xlink="http://www.w3.org/1999/xlink" x="0px" y="0px"
	 width="595.279px" height="841.891px" viewBox="0 0 595.279 841.891" enable-background="new 0 0 595.279 841.891"
	 xml:space="preserve">
<g>
	<g>
		<path fill="#7CC99B" d="M557.082,201.269c-15.656-50.729-141.024-77.964-259.442-77.964S53.855,150.54,38.198,201.269
			c-1.028,1.619-1.645,3.525-1.645,5.584v428.184c0,2.115,0.63,4.084,1.712,5.731c16.103,51.104,141.264,77.816,259.375,77.816
			c65.007,0,127.005-7.694,174.57-21.667c34.164-10.032,75.865-27.808,84.805-56.147c1.083-1.647,1.714-3.618,1.714-5.733V206.854
			C558.727,204.794,558.112,202.888,557.082,201.269z M537.84,631.697c-0.13,0.385-0.238,0.783-0.323,1.188
			c-6.592,31.3-104.556,64.813-239.877,64.813S64.356,664.186,57.763,632.885c-0.085-0.406-0.194-0.804-0.323-1.188v-69.775
			c42.604,34.144,143.707,52.229,240.2,52.229s197.596-18.086,240.2-52.229V631.697z M537.84,525.381
			c0,15.274-25.322,32.679-66.083,45.418c-46.358,14.486-108.194,22.465-174.117,22.465s-127.759-7.979-174.118-22.465
			c-40.761-12.738-66.083-30.142-66.083-45.418v-67.894c42.605,34.142,143.708,52.228,240.201,52.228s197.596-18.086,240.2-52.229
			V525.381z M537.84,420.945c0,15.274-25.322,32.679-66.083,45.418c-46.358,14.486-108.194,22.465-174.117,22.465
			s-127.759-7.979-174.118-22.465C82.761,453.624,57.44,436.22,57.44,420.945v-67.894c42.604,34.143,143.707,52.228,240.2,52.228
			s197.596-18.086,240.2-52.229V420.945z M537.84,316.509c0,15.275-25.322,32.679-66.083,45.418
			c-46.358,14.487-108.194,22.465-174.117,22.465s-127.759-7.978-174.118-22.465c-40.761-12.738-66.083-30.142-66.083-45.418
			v-67.893c42.605,34.143,143.708,52.229,240.201,52.229s197.596-18.086,240.2-52.229V316.509z M471.758,257.492
			c-46.359,14.488-108.195,22.466-174.118,22.466s-127.759-7.979-174.118-22.465c-40.761-12.738-66.083-30.142-66.083-45.418
			c0-15.276,25.322-32.679,66.083-45.418c46.36-14.486,108.195-22.465,174.118-22.465s127.759,7.979,174.118,22.465
			c40.761,12.738,66.083,30.142,66.083,45.418C537.841,227.351,512.519,244.754,471.758,257.492z"/>
	</g>
</g>
</svg>
