<?xml version="1.0" encoding="utf-8"?>
<!-- Generator: Adobe Illustrator 16.0.0, SVG Export Plug-In . SVG Version: 6.00 Build 0)  -->
<!DOCTYPE svg PUBLIC "-//W3C//DTD SVG 1.1//EN" "http://www.w3.org/Graphics/SVG/1.1/DTD/svg11.dtd">
<svg version="1.1" id="Capa_1" xmlns="http://www.w3.org/2000/svg" xmlns:xlink="http://www.w3.org/1999/xlink" x="0px" y="0px"
	 width="595.279px" height="841.891px" viewBox="0 0 595.279 841.891" enable-background="new 0 0 595.279 841.891"
	 xml:space="preserve">
<g>
	<path fill="#7CC99B" d="M577.411,599.728c-5.446-1.021-10.605,2.391-11.707,7.749c-11.072,54.587-54.021,91.266-106.853,91.266
		c-49.885,0-93.717-32.74-108.619-79.37h46.621v-19.843h-79.371v79.37h19.843v-38.187c21.52,46.451,68.605,77.872,121.526,77.872
		c62.544,0,113.302-43.068,126.309-107.16C586.251,606.048,582.78,600.819,577.411,599.728z"/>
	<path fill="#7CC99B" d="M575.438,523.225c-22.323-44.2-66.513-72.516-116.586-72.516c-60.609,0-114.502,39.655-131.051,96.445
		c-1.528,5.259,1.488,10.765,6.756,12.293c5.269,1.537,10.774-1.488,12.293-6.757c13.87-47.593,60.967-82.139,112.002-82.139
		c45.291,0,84.946,27.442,102.487,69.449h-45.43v19.843h79.37v-79.371h-19.842V523.225z"/>
	<path fill="#7CC99B" d="M104.174,182.833c-24.615,0-44.646,20.031-44.646,44.646s20.031,44.646,44.646,44.646
		s44.646-20.031,44.646-44.646S128.789,182.833,104.174,182.833z M104.174,252.282c-13.682,0-24.804-11.122-24.804-24.803
		s11.122-24.803,24.804-24.803s24.804,11.122,24.804,24.803S117.856,252.282,104.174,252.282z"/>
	<circle fill="#7CC99B" cx="496.067" cy="212.597" r="9.921"/>
	<circle fill="#7CC99B" cx="456.381" cy="212.597" r="9.921"/>
	<circle fill="#7CC99B" cx="515.909" cy="242.361" r="9.921"/>
	<circle fill="#7CC99B" cx="476.224" cy="242.361" r="9.921"/>
	<circle fill="#7CC99B" cx="416.696" cy="212.597" r="9.921"/>
	<circle fill="#7CC99B" cx="436.538" cy="242.361" r="9.921"/>
	<circle fill="#7CC99B" cx="377.011" cy="212.597" r="9.921"/>
	<circle fill="#7CC99B" cx="396.854" cy="242.361" r="9.921"/>
	<circle fill="#7CC99B" cx="337.325" cy="212.597" r="9.921"/>
	<circle fill="#7CC99B" cx="357.168" cy="242.361" r="9.921"/>
	<path fill="#7CC99B" d="M595.28,285.936V169.022c0-25.21-20.507-45.718-45.717-45.718H45.717C20.507,123.305,0,143.813,0,169.022
		v116.903c0,14.574,6.975,27.422,17.63,35.806C6.975,330.115,0,342.963,0,357.528v116.903c0,14.575,6.975,27.423,17.63,35.807
		C6.975,518.621,0,531.469,0,546.033v116.903c0,25.22,20.507,45.728,45.717,45.728h232.08v-19.843H45.717
		c-14.267,0-25.874-11.608-25.874-25.875V546.033c0-14.267,11.607-25.875,25.874-25.875H297.64v-19.843H45.717
		c-14.267,0-25.874-11.607-25.874-25.874V357.528c0-14.267,11.607-25.875,25.874-25.875h503.836
		c14.276,0,25.885,11.608,25.885,25.875v73.338h19.842v-73.338c0-14.574-6.975-27.422-17.63-35.796
		C588.305,313.348,595.28,300.5,595.28,285.936z M45.717,311.811c-14.267,0-25.874-11.608-25.874-25.875V169.022
		c0-14.267,11.607-25.875,25.874-25.875h503.836c14.276,0,25.885,11.608,25.885,25.875v116.903
		c0,14.276-11.608,25.885-25.875,25.885H45.717z"/>
	<path fill="#7CC99B" d="M59.528,415.984c0,24.615,20.031,44.646,44.646,44.646s44.646-20.031,44.646-44.646
		c0-24.615-20.03-44.646-44.646-44.646S59.528,391.37,59.528,415.984z M128.978,415.984c0,13.682-11.122,24.804-24.804,24.804
		S79.37,429.666,79.37,415.984s11.122-24.803,24.804-24.803S128.978,402.303,128.978,415.984z"/>
	<circle fill="#7CC99B" cx="496.067" cy="401.102" r="9.921"/>
	<circle fill="#7CC99B" cx="456.381" cy="401.102" r="9.921"/>
	<circle fill="#7CC99B" cx="515.909" cy="430.867" r="9.921"/>
	<circle fill="#7CC99B" cx="476.224" cy="430.867" r="9.921"/>
	<circle fill="#7CC99B" cx="416.696" cy="401.102" r="9.921"/>
	<circle fill="#7CC99B" cx="436.538" cy="430.867" r="9.921"/>
	<circle fill="#7CC99B" cx="377.011" cy="401.102" r="9.921"/>
	<circle fill="#7CC99B" cx="396.854" cy="430.867" r="9.921"/>
	<circle fill="#7CC99B" cx="337.325" cy="401.102" r="9.921"/>
	<circle fill="#7CC99B" cx="357.168" cy="430.867" r="9.921"/>
	<path fill="#7CC99B" d="M59.528,604.49c0,24.614,20.031,44.646,44.646,44.646s44.646-20.031,44.646-44.646
		c0-24.615-20.03-44.646-44.646-44.646S59.528,579.875,59.528,604.49z M128.978,604.49c0,13.681-11.122,24.803-24.804,24.803
		S79.37,618.171,79.37,604.49c0-13.682,11.122-24.804,24.804-24.804S128.978,590.809,128.978,604.49z"/>
</g>
</svg>
