<?xml version="1.0" encoding="utf-8"?>
<!-- Generator: Adobe Illustrator 16.0.0, SVG Export Plug-In . SVG Version: 6.00 Build 0)  -->
<!DOCTYPE svg PUBLIC "-//W3C//DTD SVG 1.1//EN" "http://www.w3.org/Graphics/SVG/1.1/DTD/svg11.dtd">
<svg version="1.1" id="Capa_1" xmlns="http://www.w3.org/2000/svg" xmlns:xlink="http://www.w3.org/1999/xlink" x="0px" y="0px"
	 width="595.279px" height="841.891px" viewBox="0 0 595.279 841.891" enable-background="new 0 0 595.279 841.891"
	 xml:space="preserve">
<path fill="#FBB03B" d="M588.84,688.58H364.122c-3.555,0-6.439-2.886-6.439-6.44v-67.123c0-3.555,2.885-6.439,6.439-6.439h19.464
	v-85.615h-39.88c-3.906,8.391-12.419,14.226-22.271,14.226h-47.409c-9.853,0-18.365-5.835-22.271-14.226h-40.061v85.615h19.461
	c3.554,0,6.439,2.885,6.439,6.439v67.123c0,3.555-2.886,6.44-6.439,6.44H6.44c-3.555,0-6.439-2.886-6.439-6.44v-67.123
	c0-3.555,2.885-6.439,6.439-6.439h19.792l17.922-337.032c0-0.051,0.003-0.097,0.006-0.148l3.636-68.402
	c0.18-3.419,3.007-6.099,6.43-6.099h25.298V159.75c0-3.555,2.886-6.439,6.44-6.439h87.553c3.555,0,6.439,2.885,6.439,6.439v37.147
	h25.299c3.555,0,6.439,2.885,6.439,6.44V307.62h40.061c3.906-8.391,12.423-14.225,22.271-14.225h47.409
	c9.853,0,18.365,5.834,22.271,14.225h39.88V203.337c0-3.555,2.886-6.44,6.44-6.44h25.478V159.75c0-3.555,2.886-6.439,6.44-6.439
	h87.55c3.555,0,6.439,2.885,6.439,6.439v37.147h25.115c3.422,0,6.246,2.679,6.43,6.099l21.563,405.584h19.796
	c3.555,0,6.439,2.885,6.439,6.439v67.124C595.28,685.698,592.395,688.58,588.84,688.58z M370.563,675.7h211.838v-54.244H370.563
	V675.7L370.563,675.7z M12.879,675.7h211.835v-54.244H12.879V675.7z M396.466,608.577h159.681l-17.562-330.322H396.466V608.577z
	 M39.13,608.577h159.684V278.259H56.692L39.13,608.577z M264.208,518.94c2.08,3.226,5.703,5.367,9.817,5.367h47.409
	c4.111,0,7.736-2.138,9.816-5.364c-0.666-1.646-0.631-3.51,0.136-5.148c1.14-2.443,1.719-5.026,1.719-7.673V324.457
	c0-2.646-0.579-5.229-1.719-7.673c-0.767-1.639-0.802-3.503-0.136-5.148c-2.08-3.226-5.702-5.364-9.816-5.364h-47.409
	c-4.114,0-7.74,2.141-9.817,5.368c0.667,1.642,0.632,3.506-0.132,5.142c-1.143,2.447-1.723,5.033-1.723,7.676v181.668
	c0,2.644,0.58,5.229,1.723,7.677C264.84,515.438,264.875,517.302,264.208,518.94z M345.986,510.086h37.601V320.5h-37.601V510.086z
	 M211.694,510.086h37.781V320.5h-37.781V510.086z M396.466,265.379H537.9l-2.956-55.603H396.466V265.379z M57.377,265.379h141.437
	v-55.603H60.333L57.377,265.379z M428.384,196.897h74.671v-30.708h-74.671V196.897z M92.406,196.897h74.671v-30.708H92.406V196.897z
	"/>
</svg>
