<?xml version="1.0" encoding="UTF-8" standalone="no"?>
<svg width="138px" height="142px" viewBox="0 0 138 142" version="1.1" xmlns="http://www.w3.org/2000/svg" xmlns:xlink="http://www.w3.org/1999/xlink">
    <!-- Generator: Sketch 39.1 (31720) - http://www.bohemiancoding.com/sketch -->
    <title>Group 2</title>
    <desc>Created with Sketch.</desc>
    <defs>
        <path d="M68.9331618,102.148843 C85.7734013,102.148843 99.4251112,88.1231468 99.4251112,70.8215723 C99.4251112,53.5199977 85.7734013,39.4943019 68.9331618,39.4943019 C52.0929224,39.4943019 38.4412125,53.5199977 38.4412125,70.8215723 C38.4412125,88.1231468 52.0929224,102.148843 68.9331618,102.148843 Z M68.8145161,141.399353 C106.819726,141.399353 137.629032,109.746031 137.629032,70.6996763 C137.629032,31.6533213 106.819726,0 68.8145161,0 C30.8093064,0 0,31.6533213 0,70.6996763 C0,109.746031 30.8093064,141.399353 68.8145161,141.399353 Z" id="path-1"></path>
    </defs>
    <g id="Page-1" stroke="none" stroke-width="1" fill="none" fill-rule="evenodd">
        <g id="Summary_Dark" transform="translate(-43.000000, -282.000000)">
            <g id="Group-2" transform="translate(43.000000, 282.000000)">
                <g id="Doughnut-1">
                    <mask id="mask-2" fill="white">
                        <use xlink:href="#path-1"></use>
                    </mask>
                    <use id="Oval-Mask" fill="#6D6D72" xlink:href="#path-1"></use>
                    <polygon id="Path-1" fill="#E94B35" mask="url(#mask-2)" points="68.2001008 75.2751295 90.9334677 -10.1826689 127.870134 5.00624011 131.459455 28.4310593"></polygon>
                    <polygon id="Path-2" fill="#8CC63F" mask="url(#mask-2)" points="67.8653504 70.4098858 122.157631 22.9164468 157.324221 79.9085736 144.972355 129.641757"></polygon>
                    <polygon id="Path-3" fill="#8CC63F" mask="url(#mask-2)" points="27.1685746 110.480923 67.8178921 72.3496256 127.662792 112.252108 114.70668 142.668321 23.3969355 144.568648 10.4408231 126.172474"></polygon>
                    <polygon id="Path-4" fill="#F7921E" mask="url(#mask-2)" points="67.8653504 70.3394791 14.8069855 119.214282 -21.5935206 82.3994953 -5.55261958 48.7583974"></polygon>
                    <polygon id="Path-5" fill="#F7921E" mask="url(#mask-2)" points="67.628059 70.2120923 -25.3901835 64.5166965 55.3077619 -19.015775"></polygon>
                    <polygon id="Path-6" fill="#F7921E" mask="url(#mask-2)" points="67.9180818 70.4558843 53.1532814 -3.07177904 67.9180818 -5.6072157 86.3740823 0.0975167948"></polygon>
                </g>
                <path d="M69.1916667,120.94954 C97.2431296,120.94954 119.983333,98.4656319 119.983333,70.7303256 C119.983333,42.9950193 97.2431296,20.5111111 69.1916667,20.5111111 C41.1402037,20.5111111 18.4,42.9950193 18.4,70.7303256 C18.4,98.4656319 41.1402037,120.94954 69.1916667,120.94954 Z" id="Oval-12" fill="#454649"></path>
            </g>
        </g>
    </g>
</svg>