<?xml version="1.0" encoding="UTF-8" standalone="no"?>
<svg width="23px" height="40px" viewBox="0 0 23 40" version="1.1" xmlns="http://www.w3.org/2000/svg" xmlns:xlink="http://www.w3.org/1999/xlink">
    <!-- Generator: Sketch 39.1 (31720) - http://www.bohemiancoding.com/sketch -->
    <title>bulb1</title>
    <desc>Created with Sketch.</desc>
    <defs></defs>
    <g id="Page-1" stroke="none" stroke-width="1" fill="none" fill-rule="evenodd">
        <g id="Summary" transform="translate(-262.000000, -109.000000)" fill="#EA6A2A">
            <g id="bulb1" transform="translate(262.000000, 109.000000)">
                <g id="Capa_1">
                    <g id="Group">
                        <path d="M15.4714286,30.5085714 C15.4714286,30.5085714 22.2257143,16.7542857 22.2257143,11.1128571 C22.2257143,4.97428571 17.2471429,0 11.11,0 C4.97428571,0 0,4.97428571 0,11.1128571 C0,16.6728571 7.63571429,30.5157143 7.63571429,30.5157143 L15.4714286,30.5085714 L15.4714286,30.5085714 Z M12.5971429,29.3857143 L11.33,29.3871429 C10.2185714,24.14 9.15142857,18.8728571 8.31285714,13.57 C9.17428571,14.7242857 10.3,15.2628571 11.7557143,13.7871429 C12.5014286,13.0328571 12.98,11.9414286 13.3742857,10.8914286 C13.1157143,17.0557143 12.8557143,23.2214286 12.5971429,29.3857143 L12.5971429,29.3857143 Z M11.11,1.12714286 C16.6157143,1.12714286 21.0942857,5.60714286 21.0942857,11.1128571 C21.0942857,15.7685714 16.0628571,26.6514286 14.7614286,29.3842857 L13.4728571,29.3857143 C13.7771429,22.1642857 14.0814286,14.9428571 14.3828571,7.72 C14.4085714,7.10428571 13.6257143,7.43857143 13.5214286,7.83857143 C13.3071429,8.68142857 13.0328571,9.50714286 12.7414286,10.3285714 C12.36,11.3942857 11.8757143,12.4085714 11.1885714,13.3085714 C9.59714286,15.39 8.08857143,11.0771429 7.8,10.3514286 C7.60285714,9.85142857 6.90857143,10.5585714 6.95857143,10.91 C7.81428571,17.11 9.06428571,23.2657143 10.3585714,29.3885714 L8.30428571,29.3914286 C6.03857143,25.1857143 1.12857143,15.23 1.12857143,11.1128571 C1.12857143,5.60714286 5.60714286,1.12714286 11.11,1.12714286 L11.11,1.12714286 Z" id="Shape"></path>
                        <path d="M7.39571429,36.5 C7.39571429,36.7228571 7.42857143,36.94 7.46142857,37.15 C7.46142857,37.15 7.35571429,39.7328571 11.3885714,39.6985714 C15.42,39.6628571 15.4842857,37.15 15.4842857,37.15 C15.5171429,36.94 15.5528571,36.7228571 15.5528571,36.5 L15.5528571,31.5828571 L7.39571429,31.5828571 L7.39571429,36.5 L7.39571429,36.5 Z" id="Shape"></path>
                    </g>
                </g>
            </g>
        </g>
    </g>
</svg>