<?xml version="1.0" encoding="UTF-8" standalone="no"?>
<svg width="17px" height="18px" viewBox="0 0 17 18" version="1.1" xmlns="http://www.w3.org/2000/svg" xmlns:xlink="http://www.w3.org/1999/xlink">
    <!-- Generator: Sketch 39.1 (31720) - http://www.bohemiancoding.com/sketch -->
    <title>calendar53</title>
    <desc>Created with Sketch.</desc>
    <defs></defs>
    <g id="Page-1" stroke="none" stroke-width="1" fill="none" fill-rule="evenodd">
        <g id="Reports" transform="translate(-324.000000, -412.000000)" fill="#9B9B9B">
            <g id="Group-2" transform="translate(313.000000, 194.685741)">
                <g id="calendar53" transform="translate(11.583815, 218.000000)">
                    <g id="Capa_1">
                        <g id="_x32_22._Calender">
                            <path d="M9.4829822,8.94692105 L9.4829822,8.94692105 C9.00667787,8.94692105 8.62089291,9.34776316 8.62089291,9.84210526 C8.62089291,10.336 9.00710891,10.7368421 9.4829822,10.7368421 L9.4829822,10.7368421 C9.95885549,10.7368421 10.3450715,10.336 10.3450715,9.84210526 C10.3450715,9.34776316 9.95928654,8.94692105 9.4829822,8.94692105 L9.4829822,8.94692105 Z M6.89671433,8.05263158 C7.37258762,8.05263158 7.75880362,7.65178947 7.75880362,7.15789474 C7.75880362,6.66355263 7.37258762,6.26315789 6.89671433,6.26315789 C6.42084104,6.26315789 6.03462504,6.66355263 6.03462504,7.15789474 C6.03462504,7.65178947 6.42084104,8.05263158 6.89671433,8.05263158 L6.89671433,8.05263158 Z M9.4829822,6.26315789 L9.4829822,6.26315789 C9.00667787,6.26315789 8.62089291,6.66355263 8.62089291,7.15789474 C8.62089291,7.65178947 9.00667787,8.05263158 9.4829822,8.05263158 L9.4829822,8.05263158 C9.95885549,8.05263158 10.3450715,7.65178947 10.3450715,7.15789474 C10.3450715,6.66355263 9.95928654,6.26315789 9.4829822,6.26315789 L9.4829822,6.26315789 Z M10.3450715,1.78947368 L6.03462504,1.78947368 L6.03462504,3.57894737 L10.3450715,3.57894737 L10.3450715,1.78947368 L10.3450715,1.78947368 Z M12.0692501,8.05263158 C12.5451234,8.05263158 12.9313394,7.65178947 12.9313394,7.15789474 C12.9313394,6.66355263 12.5455544,6.26315789 12.0692501,6.26315789 C11.5929457,6.26315789 11.2071608,6.66355263 11.2071608,7.15789474 C11.2071608,7.65178947 11.5933768,8.05263158 12.0692501,8.05263158 L12.0692501,8.05263158 Z M12.0692501,10.7368421 C12.5451234,10.7368421 12.9313394,10.336 12.9313394,9.84210526 C12.9313394,9.34776316 12.5455544,8.94736842 12.0692501,8.94736842 C11.5929457,8.94736842 11.2071608,9.34776316 11.2071608,9.84210526 C11.2071608,10.336 11.5933768,10.7368421 12.0692501,10.7368421 L12.0692501,10.7368421 Z M6.89671433,10.7368421 C7.37258762,10.7368421 7.75880362,10.336 7.75880362,9.84210526 C7.75880362,9.34776316 7.37301866,8.94692105 6.89671433,8.94692105 C6.42041,8.94692105 6.03462504,9.34776316 6.03462504,9.84210526 C6.03462504,10.336 6.42084104,10.7368421 6.89671433,10.7368421 L6.89671433,10.7368421 Z M4.31044646,13.4210526 C4.78631974,13.4210526 5.17253575,13.0202105 5.17253575,12.5263158 C5.17253575,12.0319737 4.78631974,11.6315789 4.31044646,11.6315789 C3.83414212,11.6315789 3.44835716,12.0319737 3.44835716,12.5263158 C3.44835716,13.0202105 3.83457317,13.4210526 4.31044646,13.4210526 L4.31044646,13.4210526 Z M14.6555179,1.78947368 L13.7934287,1.78947368 L13.7934287,3.57894737 L14.6555179,3.57894737 L14.6555179,15.2105263 L1.72417858,15.2105263 L1.72417858,3.57894737 L2.58626787,3.57894737 L2.58626787,1.78947368 L1.72417858,1.78947368 C0.77200096,1.78947368 0,2.59026316 0,3.57894737 L0,15.2100789 C0,16.1987632 0.77200096,17 1.72417858,17 L14.6555179,17 C15.6076956,17 16.3796965,16.1987632 16.3796965,15.2100789 L16.3796965,3.57894737 C16.3796965,2.59026316 15.6076956,1.78947368 14.6555179,1.78947368 L14.6555179,1.78947368 Z M4.31044646,10.7368421 C4.78631974,10.7368421 5.17253575,10.336 5.17253575,9.84210526 C5.17253575,9.34776316 4.78631974,8.94692105 4.31044646,8.94692105 C3.83414212,8.94692105 3.44835716,9.34776316 3.44835716,9.84210526 C3.44835716,10.336 3.83457317,10.7368421 4.31044646,10.7368421 L4.31044646,10.7368421 Z M4.31044646,8.05263158 C4.78631974,8.05263158 5.17253575,7.65178947 5.17253575,7.15789474 C5.17253575,6.66355263 4.78631974,6.26315789 4.31044646,6.26315789 C3.83414212,6.26315789 3.44835716,6.66355263 3.44835716,7.15789474 C3.44835716,7.65178947 3.83457317,8.05263158 4.31044646,8.05263158 L4.31044646,8.05263158 Z M6.89671433,13.4210526 C7.37258762,13.4210526 7.75880362,13.0202105 7.75880362,12.5263158 C7.75880362,12.0319737 7.37258762,11.6315789 6.89671433,11.6315789 C6.42084104,11.6315789 6.03462504,12.0319737 6.03462504,12.5263158 C6.03462504,13.0202105 6.42084104,13.4210526 6.89671433,13.4210526 L6.89671433,13.4210526 Z M4.31044646,3.57894737 C4.78631974,3.57894737 5.17253575,3.17810526 5.17253575,2.68421053 L5.17253575,0.894736842 C5.17253575,0.400394737 4.78675079,0 4.31044646,0 C3.83457317,0 3.44835716,0.400394737 3.44835716,0.894736842 L3.44835716,2.68421053 C3.44835716,3.17810526 3.83457317,3.57894737 4.31044646,3.57894737 L4.31044646,3.57894737 Z M12.0692501,3.57894737 C12.5451234,3.57894737 12.9313394,3.17810526 12.9313394,2.68421053 L12.9313394,0.894736842 C12.9313394,0.400394737 12.5451234,0 12.0692501,0 C11.5929457,0 11.2071608,0.400394737 11.2071608,0.894736842 L11.2071608,2.68421053 C11.2071608,3.17810526 11.5933768,3.57894737 12.0692501,3.57894737 L12.0692501,3.57894737 Z" id="Shape"></path>
                        </g>
                    </g>
                </g>
            </g>
        </g>
    </g>
</svg>