<?xml version="1.0" encoding="UTF-8" standalone="no"?>
<svg width="20px" height="20px" viewBox="0 0 20 20" version="1.1" xmlns="http://www.w3.org/2000/svg" xmlns:xlink="http://www.w3.org/1999/xlink">
    <!-- Generator: Sketch 39.1 (31720) - http://www.bohemiancoding.com/sketch -->
    <title>check13</title>
    <desc>Created with Sketch.</desc>
    <defs></defs>
    <g id="Page-1" stroke="none" stroke-width="1" fill="none" fill-rule="evenodd">
        <g id="Summary" transform="translate(-672.000000, -1025.000000)" fill="#7ED321">
            <g id="check13" transform="translate(672.000000, 1025.000000)">
                <g id="Layer_1">
                    <g id="Group">
                        <path d="M9.99157895,0.256491228 C4.60315789,0.256491228 0.219298246,4.64035088 0.219298246,10.0287719 C0.219298246,15.417193 4.60315789,19.8010526 9.99157895,19.8010526 C15.38,19.8010526 19.7638596,15.417193 19.7638596,10.0287719 C19.7635088,4.64035088 15.38,0.256491228 9.99157895,0.256491228 L9.99157895,0.256491228 Z M9.99157895,18.2259649 C5.47157895,18.2259649 1.79438596,14.5487719 1.79438596,10.0284211 C1.79438596,5.50842105 5.47157895,1.83122807 9.99157895,1.83122807 C14.5115789,1.83122807 18.1887719,5.50877193 18.1887719,10.0287719 C18.1887719,14.5487719 14.5115789,18.2259649 9.99157895,18.2259649 L9.99157895,18.2259649 Z" id="Shape"></path>
                        <path d="M13.1066667,6.91263158 L8.54526316,11.474386 L6.87614035,9.80526316 C6.56877193,9.49754386 6.07017544,9.49754386 5.76280702,9.80526316 C5.45508772,10.1126316 5.45508772,10.6112281 5.76280702,10.9185965 L7.98877193,13.1445614 C8.14245614,13.2982456 8.34421053,13.3754386 8.54561404,13.3754386 C8.74701754,13.3754386 8.94842105,13.2985965 9.10210526,13.1445614 L14.2203509,8.02631579 C14.5277193,7.71859649 14.5277193,7.22035088 14.2203509,6.91263158 C13.9126316,6.60526316 13.414386,6.60526316 13.1066667,6.91263158 L13.1066667,6.91263158 Z" id="Shape"></path>
                    </g>
                </g>
            </g>
        </g>
    </g>
</svg>