<?xml version="1.0" encoding="UTF-8" standalone="no"?>
<svg width="20px" height="20px" viewBox="0 0 20 20" version="1.1" xmlns="http://www.w3.org/2000/svg" xmlns:xlink="http://www.w3.org/1999/xlink">
    <!-- Generator: Sketch 39.1 (31720) - http://www.bohemiancoding.com/sketch -->
    <title>close11</title>
    <desc>Created with Sketch.</desc>
    <defs></defs>
    <g id="Page-1" stroke="none" stroke-width="1" fill="none" fill-rule="evenodd">
        <g id="Summary" transform="translate(-672.000000, -1066.000000)" fill="#D0011B">
            <g id="close11" transform="translate(672.000000, 1066.000000)">
                <g id="Capa_1">
                    <g id="Group">
                        <path d="M10,0 C4.47733333,0 0,4.47733333 0,10 C0,15.524 4.47733333,20 10,20 C15.524,20 20,15.524 20,10 C20,4.47733333 15.524,0 10,0 L10,0 Z M10,18.6666667 C5.22133333,18.6666667 1.33333333,14.7786667 1.33333333,10 C1.33333333,5.22133333 5.22133333,1.33333333 10,1.33333333 C14.7786667,1.33333333 18.6666667,5.22133333 18.6666667,10 C18.6666667,14.7786667 14.7786667,18.6666667 10,18.6666667 L10,18.6666667 Z" id="Shape"></path>
                        <path d="M13.6906667,5.36666667 L10.0266667,9.032 L6.73866667,5.36666667 C6.47866667,5.10666667 6.056,5.10666667 5.796,5.36666667 C5.536,5.62666667 5.536,6.04933333 5.796,6.30933333 L9.084,9.97466667 L5.368,13.6906667 C5.108,13.9506667 5.108,14.3733333 5.368,14.6333333 C5.628,14.8933333 6.05066667,14.8933333 6.31066667,14.6333333 L9.976,10.9693333 L13.264,14.6333333 C13.5226667,14.8933333 13.9466667,14.8933333 14.2053333,14.6333333 C14.4653333,14.3733333 14.4653333,13.9506667 14.2053333,13.6906667 L10.9173333,10.0266667 L14.6333333,6.30933333 C14.8933333,6.04933333 14.8933333,5.62666667 14.6333333,5.36666667 C14.372,5.10666667 13.9506667,5.10666667 13.6906667,5.36666667 L13.6906667,5.36666667 Z" id="Shape"></path>
                    </g>
                </g>
            </g>
        </g>
    </g>
</svg>