<?xml version="1.0" encoding="UTF-8" standalone="no"?>
<svg width="21px" height="14px" viewBox="0 0 21 14" version="1.1" xmlns="http://www.w3.org/2000/svg" xmlns:xlink="http://www.w3.org/1999/xlink">
    <!-- Generator: Sketch 39.1 (31720) - http://www.bohemiancoding.com/sketch -->
    <title>eye18</title>
    <desc>Created with Sketch.</desc>
    <defs></defs>
    <g id="Page-1" stroke="none" stroke-width="1" fill="none" fill-rule="evenodd">
        <g id="Reports" transform="translate(-594.000000, -415.000000)" fill="#9B9B9B">
            <g id="Group-2" transform="translate(313.000000, 194.685741)">
                <g id="eye18" transform="translate(281.486705, 221.000000)">
                    <g id="Layer_1">
                        <g id="Group">
                            <path d="M10.1235714,12.8689286 C6.75642857,12.8689286 3.45392857,10.9935714 0.3075,7.29535714 C0.0632142857,7.00821429 0.0417857143,6.59357143 0.254642857,6.28285714 C0.425714286,6.03285714 4.50964286,0.167142857 10.2414286,0.167142857 C13.6382143,0.167142857 16.8232143,2.22071429 19.7078571,6.27035714 C19.9092857,6.55357143 19.9146429,6.93178571 19.7210714,7.22 C19.5664286,7.45035714 15.8603571,12.8689286 10.1235714,12.8689286 L10.1235714,12.8689286 Z M2.01857143,6.71607143 C4.6925,9.69178571 7.41678571,11.1992857 10.1235714,11.1992857 C14.0667857,11.1992857 17.0157143,7.96928571 17.9896429,6.7475 C15.54,3.48821429 12.9357143,1.83607143 10.2417857,1.83607143 C6.2975,1.83607143 3.09428571,5.37214286 2.01857143,6.71607143 L2.01857143,6.71607143 Z" id="Shape"></path>
                            <path d="M9.98571429,2.50071429 C7.76714286,2.50071429 5.96892857,4.29892857 5.96892857,6.51785714 C5.96892857,8.73607143 7.76714286,10.5346429 9.98571429,10.5346429 C12.2039286,10.5346429 14.0025,8.73607143 14.0025,6.51785714 C14.0025,4.29928571 12.2042857,2.50071429 9.98571429,2.50071429 L9.98571429,2.50071429 Z M11.4246429,6.5775 C10.5307143,6.5775 9.80571429,5.85285714 9.80571429,4.95928571 C9.80571429,4.065 10.5307143,3.34035714 11.4246429,3.34035714 C12.3185714,3.34035714 13.0435714,4.065 13.0435714,4.95928571 C13.0435714,5.8525 12.3185714,6.5775 11.4246429,6.5775 L11.4246429,6.5775 Z" id="Shape"></path>
                        </g>
                    </g>
                </g>
            </g>
        </g>
    </g>
</svg>