<?xml version="1.0" encoding="UTF-8" standalone="no"?>
<svg width="40px" height="40px" viewBox="0 0 40 40" version="1.1" xmlns="http://www.w3.org/2000/svg" xmlns:xlink="http://www.w3.org/1999/xlink">
    <!-- Generator: Sketch 39.1 (31720) - http://www.bohemiancoding.com/sketch -->
    <title>like1</title>
    <desc>Created with Sketch.</desc>
    <defs></defs>
    <g id="Page-1" stroke="none" stroke-width="1" fill="none" fill-rule="evenodd">
        <g id="Summary" transform="translate(-897.000000, -107.000000)" fill="#EA6A2A">
            <g id="like1" transform="translate(897.000000, 107.000000)">
                <g id="Capa_1">
                    <path d="M10.6392,20.8 L1.0872,20.8 C0.6512,20.8 0.2872,21.164 0.2872,21.6 L0.2872,36.5232 L0.2872,38.3128 C0.2872,38.7488 0.6512,39.1128 1.0872,39.1128 L10.6392,39.1128 C10.8576,39.1128 11.02,39.0312 11.1456,38.9176 C11.1648,38.9032 11.1848,38.8912 11.2024,38.8752 C11.2168,38.8592 11.228,38.8408 11.2408,38.824 C11.356,38.6976 11.4384,38.5344 11.4384,38.3136 L11.4384,23.3904 L11.4384,21.6008 C11.4392,21.164 11.0752,20.8 10.6392,20.8 L10.6392,20.8 Z M1.8872,22.4 L9.8392,22.4 L9.8392,36.5232 L9.8392,37.5128 L1.8872,37.5128 L1.8872,23.3896 L1.8872,22.4 L1.8872,22.4 Z M39.256,27.6368 L39.256,26.8168 C39.9984,26.2856 39.9816,24.8768 39.9848,24.0496 C39.988,23.2952 40.0208,22.52 39.5272,21.9064 C39.396,21.744 39.2208,21.6496 39.032,21.5848 L39.032,21.4336 C39.056,21.4312 39.0792,21.4296 39.1032,21.4272 C39.4248,21.3992 39.824,21.2072 39.8744,20.84 C40.0032,19.9064 39.9336,18.9576 39.944,18.0184 C39.9568,16.8064 39.5632,15.8048 38.5456,15.1008 C37.4912,14.3712 36.0232,14.5328 34.7984,14.5128 C32.0664,14.4672 29.3336,14.416 26.6016,14.3648 C27.164,13.6504 27.7256,12.9352 28.2864,12.2192 C29.3728,10.8304 30.48,9.52 31.2288,7.912 C31.9728,6.3144 32.552,4.3192 31.8664,2.5976 C31.384,1.3864 30.3336,0.4824 29.0304,0.2816 C27.7824,0.0896 26.4944,0.448 25.5976,1.36 C25.2096,1.7552 24.9872,2.2376 24.7264,2.7152 C24.4536,3.2144 24.1584,3.7024 23.86,4.1864 C22.06,7.1096 20.092,9.9328 18.1328,12.7512 C16.2784,15.4192 14.4032,18.0736 12.5024,20.7096 C12.4976,20.716 12.4984,20.724 12.4944,20.7304 C12.472,20.7704 12.4584,20.8168 12.4432,20.8632 C12.4168,20.9368 12.3976,21.008 12.3976,21.0864 C12.3976,21.096 12.392,21.1032 12.392,21.1128 L12.392,36.0432 L12.392,38.3144 C12.392,38.7504 12.756,39.1144 13.192,39.1144 L27.8376,39.1144 L34.8552,39.1144 C36.26,39.1144 37.5808,38.5216 38.3344,37.2776 C38.7512,36.5896 38.68,35.556 38.7496,34.7776 C38.7664,34.5872 38.784,34.3968 38.8008,34.2064 C38.8168,34.0256 38.8328,33.8456 38.8496,33.6648 C38.8552,33.6048 38.8608,33.544 38.8664,33.484 C38.8696,33.4776 38.872,33.4752 38.8768,33.4624 C38.8784,33.4576 38.88,33.4536 38.8816,33.4488 C39.9312,32.98 39.9648,31.3776 39.976,30.4032 C39.984,29.6792 40.0512,28.8144 39.724,28.1544 C39.612,27.928 39.452,27.7624 39.256,27.6368 L39.256,27.6368 Z M38.6136,29.0296 C38.6088,29.0296 38.604,29.028 38.5992,29.0272 C38.6512,29.0232 38.7024,29.0264 38.7616,29.012 C38.716,29.0232 38.6456,29.0272 38.6136,29.0296 L38.6136,29.0296 Z M38.4424,23.068 C38.4416,23.068 38.4408,23.0672 38.44,23.0664 C38.4624,23.0664 38.4848,23.0672 38.5064,23.0688 C38.4768,23.0672 38.4568,23.0672 38.4424,23.068 L38.4424,23.068 Z M38.0816,32.0376 C38.1272,32.0136 38.1504,32.0016 38.164,31.9944 C38.1616,31.9976 38.1584,32.0016 38.1568,32.004 C38.1472,32.0056 38.1256,32.0144 38.0816,32.0376 L38.0816,32.0376 Z M38.2568,31.8576 C38.236,31.9008 38.2288,31.92 38.2264,31.9304 C38.22,31.9336 38.2072,31.944 38.1792,31.9744 C38.1688,31.9856 38.1704,31.9864 38.1648,31.9928 C38.1408,32.0032 38.0896,32.0256 38.0536,32.0304 C37.772,32.0688 37.5824,32.3488 37.4952,32.5888 C37.0792,33.7312 37.1192,35.1072 37.0112,36.312 C37.0112,36.316 37.0112,36.3168 37.0104,36.3208 C37.0064,36.336 37.0016,36.352 36.9952,36.3784 C36.9944,36.3808 36.9064,36.5464 36.8944,36.5664 C36.7784,36.7576 36.592,36.9088 36.424,37.0512 C36.1264,37.304 35.6816,37.5144 35.2872,37.5144 L34.756,37.5144 L27.548,37.5144 L13.9928,37.5144 L13.9928,23.384 L13.9928,21.3624 C17.1824,16.9368 20.3328,12.476 23.3496,7.9288 C24.1568,6.712 24.9576,5.4872 25.7016,4.2304 C25.9472,3.816 26.1792,3.3952 26.396,2.9656 C26.456,2.8464 26.5288,2.7352 26.6048,2.6264 C26.5056,2.768 26.7272,2.4904 26.7728,2.444 C26.8176,2.3984 26.8656,2.356 26.9128,2.3136 C26.9328,2.296 26.9304,2.2968 26.9376,2.2896 C26.944,2.2848 26.94,2.288 26.9496,2.2816 C27.068,2.1944 27.196,2.12 27.3256,2.052 C27.3592,2.0344 27.3936,2.0192 27.4272,2.004 C27.436,2.0024 27.5184,1.9688 27.5392,1.9608 C27.6576,1.9192 27.78,1.888 27.9024,1.8608 C27.9368,1.8536 27.9712,1.848 28.0064,1.8424 C28.016,1.8424 28.1016,1.8304 28.1256,1.828 C28.272,1.816 28.4192,1.8176 28.5656,1.8256 C28.6008,1.8272 28.6352,1.832 28.6704,1.8352 C28.6784,1.8376 28.7656,1.8504 28.7896,1.8552 C28.9136,1.8792 29.0344,1.9144 29.1544,1.9536 C29.1696,1.9584 29.2264,1.9808 29.2568,1.992 C29.2944,2.0096 29.3328,2.0264 29.3696,2.0456 C29.5024,2.1128 29.6272,2.1936 29.748,2.2808 C29.6032,2.1768 29.8824,2.408 29.928,2.4536 C29.9744,2.5008 30.0184,2.5504 30.0616,2.6008 C30.072,2.6128 30.0688,2.608 30.0752,2.616 C30.0808,2.6248 30.08,2.6256 30.1,2.6536 C30.3232,2.9688 30.36,3.0896 30.4448,3.3784 C30.5544,3.7488 30.556,3.8752 30.5616,4.2512 C30.568,4.676 30.5072,5.0552 30.4128,5.4648 C30.0216,7.1664 29.0888,8.5952 28.04,9.948 C27.4088,10.7616 26.7736,11.572 26.1376,12.3816 C25.856,12.74 25.5744,13.0976 25.2928,13.456 C24.9656,13.8712 24.4856,14.3352 24.6632,14.92 C25.0256,16.116 26.3112,15.9584 27.2792,15.976 C28.8512,16.0056 30.4224,16.0344 31.9944,16.0624 C33.4528,16.0888 34.9112,16.12 36.3696,16.1352 C37.2304,16.144 38.064,16.424 38.3072,17.3328 C38.4384,17.8216 38.3408,18.4368 38.344,18.9416 C38.3456,19.2592 38.3448,19.576 38.3384,19.8928 C38.3024,19.896 38.2656,19.8992 38.2296,19.9024 C37.7952,19.94 37.4296,20.2376 37.4296,20.7024 L37.4296,22.2696 C37.4296,22.7056 37.7936,23.0696 38.2296,23.0696 C38.2712,23.0696 38.312,23.068 38.3536,23.0672 C38.3592,23.1392 38.3592,23.2128 38.3624,23.2776 C38.3752,23.5344 38.3816,23.792 38.3824,24.0488 C38.384,24.4904 38.416,24.9856 38.3384,25.42 C38.3368,25.4296 38.336,25.4304 38.3344,25.4384 C37.8056,25.4776 37.5864,25.9144 37.6528,26.3264 L37.6528,28.2408 C37.6528,28.6336 37.9536,28.9536 38.3312,29.016 C38.3328,29.0232 38.336,29.0296 38.3368,29.036 C38.3904,29.5008 38.3784,29.9944 38.3728,30.4632 C38.368,30.8928 38.4448,31.4672 38.2568,31.8576 L38.2568,31.8576 Z" id="Shape"></path>
                </g>
            </g>
        </g>
    </g>
</svg>