<?xml version="1.0" encoding="UTF-8" standalone="no"?>
<svg width="61px" height="15px" viewBox="0 0 61 15" version="1.1" xmlns="http://www.w3.org/2000/svg" xmlns:xlink="http://www.w3.org/1999/xlink">
    <!-- Generator: Sketch 39.1 (31720) - http://www.bohemiancoding.com/sketch -->
    <title>reading11</title>
    <desc>Created with Sketch.</desc>
    <defs></defs>
    <g id="Page-1" stroke="none" stroke-width="1" fill="none" fill-rule="evenodd">
        <g id="Summary" transform="translate(-557.000000, -121.000000)" fill="#EA6A2A">
            <g id="reading11" transform="translate(557.000000, 121.000000)">
                <g id="Capa_1">
                    <path d="M58.84,1.151 C54.188,0.094 39.294,0.91 35.453,2.293 C31.287,3.793 30.287,3.623 30.287,3.623 C30.287,3.623 29.287,3.793 25.121,2.293 C21.28,0.91 6.387,0.094 1.734,1.151 C1.196,1.273 0.712,1.902 0.646,2.451 C0.509,3.602 0.355,5.577 0.605,7.393 C0.68,7.94 1.166,8.615 1.632,8.909 L2.927,9.725 C3.57,11.37 4.776,12.876 7.079,13.398 C11.16,14.323 15.488,14.413 15.546,14.413 L15.547,14.413 C15.651,14.423 16.604,14.513 17.866,14.513 C21.577,14.513 23.91,13.786 24.799,12.353 C25.57,11.112 26.133,9.758 26.509,8.697 C27.425,6.197 30.286,6.437 30.286,6.437 C30.286,6.437 33.135,6.166 34.051,8.666 C34.427,9.734 34.994,11.099 35.773,12.353 C36.663,13.786 38.996,14.513 42.707,14.513 C44.058,14.513 44.681,14.479 44.968,14.412 L44.968,14.416 C45.148,14.413 49.418,14.321 53.494,13.397 C55.923,12.846 57.127,11.202 57.741,9.453 L58.902,8.841 C59.39,8.584 59.893,7.939 59.969,7.392 C60.219,5.576 60.065,3.601 59.928,2.45 C59.862,1.903 59.378,1.273 58.84,1.151 L58.84,1.151 Z M25.642,6.409 C25.635,6.438 24.946,9.277 23.527,11.563 C22.963,12.471 20.847,13.014 17.868,13.014 C17.141,13.014 16.366,12.981 15.636,12.918 C15.459,12.914 11.274,12.811 7.412,11.936 C3.899,11.14 3.739,7.072 3.663,5.118 C3.606,3.683 3.908,3.288 6.284,3.038 C7.666,2.892 10.126,2.862 11.946,2.862 C12.998,2.862 13.793,2.872 14.004,2.875 C14.198,2.875 18.81,2.888 23.407,3.979 C24.456,4.229 25.154,4.642 25.482,5.208 C25.81,5.776 25.663,6.335 25.642,6.409 L25.642,6.409 Z M56.911,5.118 C56.835,7.073 56.675,11.14 53.162,11.936 C49.564,12.751 45.666,12.898 44.879,12.921 C44.869,12.921 43.935,13.013 42.707,13.013 C39.728,13.013 37.612,12.471 37.049,11.562 C35.694,9.379 35,6.682 34.921,6.363 C34.919,6.357 34.756,5.788 35.093,5.208 C35.42,4.642 36.118,4.229 37.167,3.979 C41.765,2.887 46.392,2.875 46.594,2.875 C46.659,2.874 47.494,2.862 48.628,2.862 C50.448,2.862 52.908,2.892 54.29,3.038 C56.666,3.288 56.968,3.683 56.911,5.118 L56.911,5.118 Z" id="Shape"></path>
                </g>
            </g>
        </g>
    </g>
</svg>