<?xml version="1.0" encoding="UTF-8" standalone="no"?>
<svg width="23px" height="23px" viewBox="0 0 23 23" version="1.1" xmlns="http://www.w3.org/2000/svg" xmlns:xlink="http://www.w3.org/1999/xlink">
    <!-- Generator: Sketch 39.1 (31720) - http://www.bohemiancoding.com/sketch -->
    <title>search7</title>
    <desc>Created with Sketch.</desc>
    <defs></defs>
    <g id="Page-1" stroke="none" stroke-width="1" fill="none" fill-rule="evenodd">
        <g id="Summary" transform="translate(-1103.000000, -19.000000)" fill="#9B9B9B">
            <g id="search7" transform="translate(1102.000000, 19.000000)">
                <g id="Capa_1">
                    <path d="M14.8235294,0 C9.75529412,0 5.64705882,4.10823529 5.64705882,9.17647059 C5.64705882,11.3576471 6.41223529,13.3581176 7.68282353,14.9364706 L1.61788235,21 C1.23670588,21.3825882 1.23670588,22.0009412 1.61788235,22.3821176 C1.99905882,22.7632941 2.61882353,22.7647059 3,22.3821176 L9.06494118,16.3171765 C10.6404706,17.5877647 12.6423529,18.3529412 14.8235294,18.3529412 C19.8917647,18.3529412 24,14.2447059 24,9.17647059 C24,4.10823529 19.8903529,0 14.8235294,0 L14.8235294,0 Z M14.8235294,16.9411765 C10.5416471,16.9411765 7.05882353,13.4583529 7.05882353,9.17647059 C7.05882353,4.89458824 10.5416471,1.41176471 14.8235294,1.41176471 C19.1054118,1.41176471 22.5882353,4.89458824 22.5882353,9.17647059 C22.5882353,13.4583529 19.1054118,16.9411765 14.8235294,16.9411765 L14.8235294,16.9411765 Z" id="Shape"></path>
                </g>
            </g>
        </g>
    </g>
</svg>