<?xml version="1.0" encoding="UTF-8" standalone="no"?>
<svg width="20px" height="20px" viewBox="0 0 20 20" version="1.1" xmlns="http://www.w3.org/2000/svg" xmlns:xlink="http://www.w3.org/1999/xlink">
    <!-- Generator: Sketch 39.1 (31720) - http://www.bohemiancoding.com/sketch -->
    <title>stop28</title>
    <desc>Created with Sketch.</desc>
    <defs></defs>
    <g id="Page-1" stroke="none" stroke-width="1" fill="none" fill-rule="evenodd">
        <g id="Summary" transform="translate(-755.000000, -1023.000000)" fill="#9B9B9B">
            <g id="stop28" transform="translate(755.000000, 1023.000000)">
                <g id="Layer_1">
                    <path d="M16.7406897,2.98896552 C14.9165517,1.16482759 12.4924138,0.160689655 9.9137931,0.160689655 C7.33517241,0.160689655 4.91034483,1.16482759 3.08689655,2.98896552 C1.26275862,4.81241379 0.25862069,7.23724138 0.25862069,9.81586207 C0.25862069,12.3944828 1.26275862,14.8193103 3.08689655,16.6427586 C4.91103448,18.4668966 7.33517241,19.4710345 9.9137931,19.4710345 C12.4924138,19.4710345 14.9172414,18.4668966 16.7406897,16.6427586 C18.5648276,14.8193103 19.5689655,12.3944828 19.5689655,9.81586207 C19.5689655,7.23724138 18.5648276,4.81241379 16.7406897,2.98896552 L16.7406897,2.98896552 Z M2.32758621,9.81586207 C2.32758621,7.78965517 3.11655172,5.88413793 4.54965517,4.45172414 C5.98275862,3.01931034 7.88827586,2.22965517 9.9137931,2.22965517 C11.5910345,2.22965517 13.1793103,2.77724138 14.4917241,3.77517241 L3.87310345,14.3937931 C2.87517241,13.082069 2.32758621,11.4931034 2.32758621,9.81586207 L2.32758621,9.81586207 Z M15.277931,15.1806897 C13.8448276,16.6137931 11.9393103,17.4027586 9.9137931,17.4027586 C8.23655172,17.4027586 6.64827586,16.8551724 5.33586207,15.8572414 L15.9537931,5.23931034 C16.9517241,6.55103448 17.4993103,8.14068966 17.4993103,9.81724138 C17.5,11.8427586 16.7110345,13.7475862 15.277931,15.1806897 L15.277931,15.1806897 Z" id="Shape"></path>
                </g>
            </g>
        </g>
    </g>
</svg>