<?xml version="1.0" encoding="UTF-8" standalone="no"?>
<svg width="24px" height="24px" viewBox="0 0 24 24" version="1.1" xmlns="http://www.w3.org/2000/svg" xmlns:xlink="http://www.w3.org/1999/xlink">
    <!-- Generator: Sketch 39.1 (31720) - http://www.bohemiancoding.com/sketch -->
    <title>stop28</title>
    <desc>Created with Sketch.</desc>
    <defs></defs>
    <g id="Page-1" stroke="none" stroke-width="1" fill="none" fill-rule="evenodd">
        <g id="Summary" transform="translate(-1190.000000, -16.000000)" fill="#9B9B9B">
            <g id="stop28" transform="translate(1190.000000, 16.000000)">
                <g id="Layer_1">
                    <path d="M20.0888276,4.18675862 C17.8998621,1.9977931 14.9908966,0.792827586 11.8965517,0.792827586 C8.8022069,0.792827586 5.89241379,1.9977931 3.70427586,4.18675862 C1.51531034,6.37489655 0.310344828,9.28468966 0.310344828,12.3790345 C0.310344828,15.4733793 1.51531034,18.3831724 3.70427586,20.5713103 C5.89324138,22.7602759 8.8022069,23.9652414 11.8965517,23.9652414 C14.9908966,23.9652414 17.9006897,22.7602759 20.0888276,20.5713103 C22.2777931,18.3831724 23.4827586,15.4733793 23.4827586,12.3790345 C23.4827586,9.28468966 22.2777931,6.37489655 20.0888276,4.18675862 L20.0888276,4.18675862 Z M2.79310345,12.3790345 C2.79310345,9.94758621 3.73986207,7.66096552 5.45958621,5.94206897 C7.17931034,4.22317241 9.46593103,3.27558621 11.8965517,3.27558621 C13.9092414,3.27558621 15.8151724,3.93268966 17.390069,5.1302069 L4.64772414,17.8725517 C3.4502069,16.2984828 2.79310345,14.3917241 2.79310345,12.3790345 L2.79310345,12.3790345 Z M18.3335172,18.8168276 C16.6137931,20.5365517 14.3271724,21.4833103 11.8965517,21.4833103 C9.88386207,21.4833103 7.97793103,20.8262069 6.40303448,19.6286897 L19.1445517,6.88717241 C20.342069,8.46124138 20.9991724,10.3688276 20.9991724,12.3806897 C21,14.8113103 20.0532414,17.0971034 18.3335172,18.8168276 L18.3335172,18.8168276 Z" id="Shape"></path>
                </g>
            </g>
        </g>
    </g>
</svg>