<?xml version="1.0" encoding="UTF-8" standalone="no"?>
<svg width="40px" height="39px" viewBox="0 0 40 39" version="1.1" xmlns="http://www.w3.org/2000/svg" xmlns:xlink="http://www.w3.org/1999/xlink">
    <!-- Generator: Sketch 39.1 (31720) - http://www.bohemiancoding.com/sketch -->
    <title>stop28</title>
    <desc>Created with Sketch.</desc>
    <defs></defs>
    <g id="Page-1" stroke="none" stroke-width="1" fill="none" fill-rule="evenodd">
        <g id="Summary" transform="translate(-1246.000000, -111.000000)" fill="#EA6A2A">
            <g id="stop28" transform="translate(1246.000000, 111.000000)">
                <g id="Layer_1">
                    <path d="M33.4813793,5.97793103 C29.8331034,2.32965517 24.9848276,0.32137931 19.8275862,0.32137931 C14.6703448,0.32137931 9.82068966,2.32965517 6.1737931,5.97793103 C2.52551724,9.62482759 0.517241379,14.4744828 0.517241379,19.6317241 C0.517241379,24.7889655 2.52551724,29.6386207 6.1737931,33.2855172 C9.82206897,36.9337931 14.6703448,38.942069 19.8275862,38.942069 C24.9848276,38.942069 29.8344828,36.9337931 33.4813793,33.2855172 C37.1296552,29.6386207 39.137931,24.7889655 39.137931,19.6317241 C39.137931,14.4744828 37.1296552,9.62482759 33.4813793,5.97793103 L33.4813793,5.97793103 Z M4.65517241,19.6317241 C4.65517241,15.5793103 6.23310345,11.7682759 9.09931034,8.90344828 C11.9655172,6.03862069 15.7765517,4.45931034 19.8275862,4.45931034 C23.182069,4.45931034 26.3586207,5.55448276 28.9834483,7.55034483 L7.7462069,28.7875862 C5.75034483,26.1641379 4.65517241,22.9862069 4.65517241,19.6317241 L4.65517241,19.6317241 Z M30.5558621,30.3613793 C27.6896552,33.2275862 23.8786207,34.8055172 19.8275862,34.8055172 C16.4731034,34.8055172 13.2965517,33.7103448 10.6717241,31.7144828 L31.9075862,10.4786207 C33.9034483,13.102069 34.9986207,16.2813793 34.9986207,19.6344828 C35,23.6855172 33.422069,27.4951724 30.5558621,30.3613793 L30.5558621,30.3613793 Z" id="Shape"></path>
                </g>
            </g>
        </g>
    </g>
</svg>