<?xml version="1.0" encoding="UTF-8" standalone="no"?>
<svg width="20px" height="18px" viewBox="0 0 20 18" version="1.1" xmlns="http://www.w3.org/2000/svg" xmlns:xlink="http://www.w3.org/1999/xlink">
    <!-- Generator: Sketch 39.1 (31720) - http://www.bohemiancoding.com/sketch -->
    <title>warning12</title>
    <desc>Created with Sketch.</desc>
    <defs></defs>
    <g id="Page-1" stroke="none" stroke-width="1" fill="none" fill-rule="evenodd">
        <g id="Summary" transform="translate(-755.000000, -1066.000000)" fill="#9B9B9B">
            <g id="warning12" transform="translate(755.000000, 1066.000000)">
                <g id="Capa_1">
                    <g id="Group">
                        <path d="M19.6212903,15.7316129 L10.6941935,0.700967742 C10.5083871,0.388709677 10.2180645,0.209354839 9.8983871,0.209354839 C9.57516129,0.209354839 9.28290323,0.391935484 9.0983871,0.71 L0.403548387,15.733871 C0.219354839,16.0512903 0.206129032,16.3941935 0.367419355,16.673871 C0.527741935,16.9529032 0.830967742,17.1129032 1.19870968,17.1129032 L18.8351613,17.1129032 C19.203871,17.1129032 19.5067742,16.9522581 19.6667742,16.6712903 C19.8264516,16.3909677 19.8096774,16.0483871 19.6212903,15.7316129 L19.6212903,15.7316129 Z M18.1016129,15.9477419 L1.9183871,15.9477419 C1.75741935,15.9477419 1.69258065,15.8345161 1.77322581,15.6951613 L9.75580645,1.90290323 C9.83645161,1.76322581 9.9683871,1.76225806 10.0506452,1.90096774 L18.243871,15.6970968 C18.3264516,15.8351613 18.2629032,15.9477419 18.1016129,15.9477419 L18.1016129,15.9477419 Z" id="Shape"></path>
                        <path d="M10.0932258,12.4390323 C10.4416129,12.4390323 10.7374194,12.1309677 10.7529032,11.7509677 L10.9829032,6.12645161 C10.9993548,5.74645161 10.7032258,5.43903226 10.3229032,5.43903226 L9.69096774,5.43903226 C9.31096774,5.43903226 9.02258065,5.74612903 9.04806452,6.12612903 L9.41677419,11.7519355 C9.4416129,12.1312903 9.74419355,12.4390323 10.0932258,12.4390323 L10.0932258,12.4390323 Z" id="Shape"></path>
                        <path d="M10.33,13.1280645 L9.69903226,13.1280645 C9.31870968,13.1280645 9.01032258,13.4354839 9.01032258,13.8167742 L9.01032258,14.4474194 C9.01032258,14.8277419 9.31870968,15.136129 9.69903226,15.136129 L10.33,15.136129 C10.7109677,15.136129 11.0196774,14.8277419 11.0196774,14.4474194 L11.0196774,13.8167742 C11.0196774,13.4354839 10.7109677,13.1280645 10.33,13.1280645 L10.33,13.1280645 Z" id="Shape"></path>
                    </g>
                </g>
            </g>
        </g>
    </g>
</svg>