<?xml version="1.0" encoding="UTF-8" standalone="no"?>
<svg width="20px" height="21px" viewBox="0 0 20 21" version="1.1" xmlns="http://www.w3.org/2000/svg" xmlns:xlink="http://www.w3.org/1999/xlink">
    <!-- Generator: Sketch 39.1 (31720) - http://www.bohemiancoding.com/sketch -->
    <title>world5</title>
    <desc>Created with Sketch.</desc>
    <defs></defs>
    <g id="Page-1" stroke="none" stroke-width="1" fill="none" fill-rule="evenodd">
        <g id="Reports" transform="translate(-594.000000, -209.000000)" fill="#9B9B9B">
            <g id="Group-2" transform="translate(313.000000, 194.685741)">
                <g id="world5" transform="translate(281.486705, 15.000000)">
                    <g id="Layer_1">
                        <path d="M9.65317919,0 C4.32151035,0 0,4.47677419 0,10 C0,15.5232258 4.32151035,20 9.65317919,20 C14.984848,20 19.3063584,15.5232258 19.3063584,10 C19.3063584,4.47677419 14.984848,0 9.65317919,0 L9.65317919,0 Z M18.0452172,9.67741935 L14.3109938,9.67741935 C14.2767406,8.2483871 14.031363,6.88322581 13.5960358,5.63354839 C14.4367966,5.27032258 15.2140332,4.78709677 15.9227634,4.21612903 C17.182659,5.68129032 17.9704829,7.58387097 18.0452172,9.67741935 L18.0452172,9.67741935 Z M9.30877867,18.6916129 C8.27370875,17.7987097 7.4055454,16.6393548 6.77030393,15.2929032 C7.58553049,15.0290323 8.44933433,14.8845161 9.34178631,14.8548387 L9.34178631,18.6929032 C9.33057617,18.6929032 9.31998881,18.6922581 9.30877867,18.6916129 L9.30877867,18.6916129 Z M9.99633414,1.3083871 C11.1709081,2.32129032 12.1293753,3.67806452 12.7776953,5.26064516 C11.8896028,5.57483871 10.9460824,5.75741935 9.96394928,5.78967742 L9.96394928,1.30645161 C9.97578221,1.30709677 9.98574678,1.30774194 9.99633414,1.3083871 L9.99633414,1.3083871 Z M11.0338952,1.41806452 C12.7527839,1.71419355 14.2948014,2.54580645 15.4955324,3.74967742 C14.8434757,4.26774194 14.1310088,4.70645161 13.3606228,5.03870968 C12.7938877,3.64709677 11.9985903,2.41677419 11.0338952,1.41806452 L11.0338952,1.41806452 Z M9.34178631,1.30645161 L9.34178631,5.78967742 C8.35965318,5.75677419 7.41550998,5.57483871 6.52804028,5.26064516 C7.17636025,3.67806452 8.13482752,2.32129032 9.30940145,1.3083871 C9.3206116,1.30774194 9.33057617,1.30709677 9.34178631,1.30645161 L9.34178631,1.30645161 Z M5.94511281,5.03935484 C5.1759724,4.70709677 4.46288271,4.2683871 3.81082603,3.75032258 C5.01093418,2.54645161 6.55357449,1.71483871 8.27246317,1.41870968 C7.30714525,2.41677419 6.51247063,3.64709677 5.94511281,5.03935484 L5.94511281,5.03935484 Z M6.29325005,5.85548387 C7.25358568,6.20064516 8.27682267,6.40193548 9.34178631,6.43548387 L9.34178631,9.67741935 L5.61815029,9.67741935 C5.65178072,8.32645161 5.88283423,7.03548387 6.29325005,5.85548387 L6.29325005,5.85548387 Z M9.34178631,10.3225806 L9.34178631,14.2096774 C8.35965318,14.2406452 7.4099049,14.4070968 6.51496178,14.7058065 C5.97562931,13.3754839 5.65738579,11.8935484 5.61815029,10.3225806 L9.34178631,10.3225806 L9.34178631,10.3225806 Z M8.27246317,18.5819355 C6.732314,18.3167742 5.3335372,17.6219355 4.19633041,16.6129032 C4.80977438,16.1722581 5.47304121,15.7993548 6.1817714,15.516129 C6.72484057,16.6825806 7.43543912,17.7180645 8.27246317,18.5819355 L8.27246317,18.5819355 Z M9.96457207,18.6935484 L9.96457207,14.8554839 C10.8564013,14.8851613 11.7208279,15.0296774 12.5360544,15.2935484 C11.9001902,16.64 11.0326496,17.7993548 9.99757971,18.6922581 C9.98699236,18.6922581 9.97578221,18.6929032 9.96457207,18.6935484 L9.96457207,18.6935484 Z M13.124587,15.516129 C13.8326944,15.7993548 14.4953384,16.1729032 15.110028,16.6129032 C13.9728212,17.6212903 12.5740444,18.3167742 11.0338952,18.5819355 C11.8709193,17.7180645 12.580895,16.6825806 13.124587,15.516129 L13.124587,15.516129 Z M12.7913966,14.7058065 C11.8958307,14.4070968 10.9460824,14.2406452 9.96457207,14.2096774 L9.96457207,10.3225806 L13.6882081,10.3225806 C13.6489726,11.8935484 13.3301063,13.3754839 12.7913966,14.7058065 L12.7913966,14.7058065 Z M9.96457207,9.67741935 L9.96457207,6.43548387 C11.0289129,6.40193548 12.0521499,6.20129032 13.0131083,5.85612903 C13.4229014,7.03612903 13.6539549,8.32709677 13.6882081,9.67806452 L9.96457207,9.67806452 L9.96457207,9.67741935 Z M3.38421779,4.21612903 C4.09294798,4.78709677 4.8701846,5.27032258 5.71032258,5.63354839 C5.27499534,6.88322581 5.02961775,8.2483871 4.99536453,9.67741935 L1.26114115,9.67741935 C1.33587544,7.58387097 2.12369942,5.68129032 3.38421779,4.21612903 L3.38421779,4.21612903 Z M1.26114115,10.3225806 L4.99536453,10.3225806 C5.03397725,11.9709677 5.36654484,13.5277419 5.93141152,14.9270968 C5.14234197,15.2458065 4.406832,15.6703226 3.72799552,16.1729032 C2.26569457,14.6651613 1.34272609,12.603871 1.26114115,10.3225806 L1.26114115,10.3225806 Z M15.5783629,16.1722581 C14.8995264,15.6703226 14.1640164,15.2451613 13.3743241,14.9264516 C13.9398135,13.5270968 14.2717583,11.9703226 14.3109938,10.3219355 L18.0452172,10.3219355 C17.9636323,12.603871 17.040041,14.6651613 15.5783629,16.1722581 L15.5783629,16.1722581 Z" id="world"></path>
                    </g>
                </g>
            </g>
        </g>
    </g>
</svg>